<svg width="18" height="19" viewBox="0 0 18 19" fill="none" xmlns="http://www.w3.org/2000/svg">
<path d="M14 0.133301H4C1.791 0.133301 0 1.9243 0 4.1333V14.1333C0 16.3423 1.791 18.1333 4 18.1333H14C16.209 18.1333 18 16.3423 18 14.1333V4.1333C18 1.9243 16.209 0.133301 14 0.133301ZM14.05 6.6473C14.05 6.7333 14.05 6.8183 14.05 6.9903C14.05 10.2473 11.564 14.0193 7.021 14.0193C5.65 14.0193 4.364 13.5903 3.25 12.9053C3.421 12.9053 3.679 12.9053 3.85 12.9053C4.964 12.9053 6.079 12.4763 6.936 11.8763C5.822 11.8763 4.965 11.1053 4.622 10.1623C4.793 10.1623 4.965 10.2483 5.051 10.2483C5.308 10.2483 5.48 10.2483 5.737 10.1623C4.623 9.9053 3.766 8.9623 3.766 7.7623C4.109 7.9333 4.452 8.0193 4.88 8.1053C4.194 7.5053 3.766 6.8193 3.766 5.9623C3.766 5.5333 3.852 5.1053 4.109 4.7623C5.309 6.2193 7.109 7.2483 9.166 7.3333C9.166 7.1623 9.08 6.9903 9.08 6.7333C9.08 5.3623 10.194 4.2473 11.566 4.2473C12.252 4.2473 12.937 4.5043 13.366 5.0183C13.966 4.9323 14.48 4.6753 14.909 4.4183C14.738 5.0183 14.309 5.4473 13.795 5.7893C14.309 5.7033 14.738 5.6183 15.252 5.3603C14.907 5.8763 14.479 6.3043 14.05 6.6473Z" fill="#232946"/>
</svg>
