<svg width="18" height="19" viewBox="0 0 18 19" fill="none" xmlns="http://www.w3.org/2000/svg">
<path d="M16 0.133301H2C0.895 0.133301 0 1.0283 0 2.1333V16.1333C0 17.2383 0.895 18.1333 2 18.1333H9.621V11.1723H7.278V8.4473H9.621V6.4423C9.621 4.1183 11.042 2.8513 13.116 2.8513C13.815 2.8493 14.513 2.8853 15.208 2.9563V5.3863H13.78C12.65 5.3863 12.43 5.9203 12.43 6.7083V8.4433H15.13L14.779 11.1683H12.414V18.1333H16C17.105 18.1333 18 17.2383 18 16.1333V2.1333C18 1.0283 17.105 0.133301 16 0.133301Z" fill="#232946"/>
</svg>
