<svg width="18" height="19" viewBox="0 0 18 19" fill="none" xmlns="http://www.w3.org/2000/svg">
<path d="M5 0.133301C2.239 0.133301 0 2.3723 0 5.1333V13.1333C0 15.8943 2.239 18.1333 5 18.1333H13C15.761 18.1333 18 15.8943 18 13.1333V5.1333C18 2.3723 15.761 0.133301 13 0.133301H5ZM15 2.1333C15.552 2.1333 16 2.5813 16 3.1333C16 3.6853 15.552 4.1333 15 4.1333C14.448 4.1333 14 3.6853 14 3.1333C14 2.5813 14.448 2.1333 15 2.1333ZM9 4.1333C11.761 4.1333 14 6.3723 14 9.1333C14 11.8943 11.761 14.1333 9 14.1333C6.239 14.1333 4 11.8943 4 9.1333C4 6.3723 6.239 4.1333 9 4.1333ZM9 6.1333C8.20435 6.1333 7.44129 6.44937 6.87868 7.01198C6.31607 7.57459 6 8.33765 6 9.1333C6 9.92895 6.31607 10.692 6.87868 11.2546C7.44129 11.8172 8.20435 12.1333 9 12.1333C9.79565 12.1333 10.5587 11.8172 11.1213 11.2546C11.6839 10.692 12 9.92895 12 9.1333C12 8.33765 11.6839 7.57459 11.1213 7.01198C10.5587 6.44937 9.79565 6.1333 9 6.1333Z" fill="#232946"/>
</svg>
