<svg width="200" height="200" viewBox="0 0 200 200" fill="none" xmlns="http://www.w3.org/2000/svg">
<g clip-path="url(#clip0_93_0)">
<rect width="200" height="200" fill="#0A2351"/>
<g style="mix-blend-mode:hard-light">
<circle cx="6.10352e-05" cy="165.352" r="24.3521" stroke="#E7C2FA" stroke-width="2"/>
<path fill-rule="evenodd" clip-rule="evenodd" d="M18.7298 148.266C14.1561 152.529 11.2959 158.607 11.2959 165.352C11.2959 172.098 14.1561 178.175 18.7298 182.438C18.28 182.931 17.811 183.406 17.3241 183.862C12.3833 179.236 9.2959 172.655 9.2959 165.352C9.2959 158.05 12.3833 151.468 17.3241 146.842C17.811 147.298 18.28 147.773 18.7298 148.266Z" fill="#E7C2FA"/>
<path fill-rule="evenodd" clip-rule="evenodd" d="M17.0862 146.622C12.8233 151.196 6.74569 154.056 9.34601e-05 154.056C-6.7455 154.056 -12.8231 151.196 -17.0861 146.622C-17.5788 147.072 -18.0538 147.541 -18.5098 148.028C-13.8837 152.969 -7.30235 156.056 9.34601e-05 156.056C7.30254 156.056 13.8839 152.969 18.51 148.028C18.054 147.541 17.579 147.072 17.0862 146.622Z" fill="#E7C2FA"/>
<circle cx="34.6479" cy="200" r="24.3521" transform="rotate(90 34.6479 200)" stroke="#DCF8E3" stroke-width="2"/>
<path fill-rule="evenodd" clip-rule="evenodd" d="M17.5617 181.27C21.8247 185.844 27.9023 188.704 34.6479 188.704C41.3935 188.704 47.471 185.844 51.734 181.27C52.2268 181.72 52.7017 182.189 53.1577 182.676C48.5316 187.617 41.9503 190.704 34.6479 190.704C27.3454 190.704 20.7641 187.617 16.138 182.676C16.594 182.189 17.0689 181.72 17.5617 181.27Z" fill="#DCF8E3"/>
<path fill-rule="evenodd" clip-rule="evenodd" d="M53.3774 217.086C48.8037 212.823 45.9435 206.746 45.9435 200C45.9435 193.254 48.8037 187.177 53.3774 182.914C52.9277 182.421 52.4587 181.946 51.9717 181.49C47.031 186.116 43.9435 192.698 43.9435 200C43.9435 207.302 47.031 213.884 51.9717 218.51C52.4587 218.054 52.9277 217.579 53.3774 217.086Z" fill="#DCF8E3"/>
<circle cx="6.10352e-05" cy="200" r="24.3521" stroke="#E7C2FA" stroke-width="2"/>
</g>
<g style="mix-blend-mode:hard-light">
<circle cx="-6.10352e-05" cy="34.6479" r="24.3521" transform="rotate(-180 -6.10352e-05 34.6479)" stroke="#ACFBF9" stroke-width="2"/>
<path fill-rule="evenodd" clip-rule="evenodd" d="M18.7295 17.5617C14.1557 21.8247 11.2956 27.9023 11.2956 34.6479C11.2956 41.3935 14.1557 47.4711 18.7295 51.734C18.2797 52.2268 17.8107 52.7018 17.3237 53.1577C12.383 48.5317 9.29557 41.9503 9.29557 34.6479C9.29557 27.3454 12.383 20.7641 17.3237 16.138C17.8107 16.594 18.2797 17.069 18.7295 17.5617Z" fill="#ACFBF9"/>
<path fill-rule="evenodd" clip-rule="evenodd" d="M-17.0862 53.3776C-12.8233 48.8038 -6.74569 45.9437 -9.34601e-05 45.9437C6.7455 45.9437 12.8231 48.8038 17.0861 53.3776C17.5788 52.9278 18.0538 52.4588 18.5098 51.9718C13.8837 47.0311 7.30235 43.9437 -9.34601e-05 43.9437C-7.30254 43.9437 -13.8839 47.0311 -18.51 51.9718C-18.054 52.4588 -17.579 52.9278 -17.0862 53.3776Z" fill="#ACFBF9"/>
<circle cx="34.6479" r="24.3521" transform="rotate(90 34.6479 0)" stroke="#DCF8E3" stroke-width="2"/>
<path fill-rule="evenodd" clip-rule="evenodd" d="M51.734 18.7297C47.471 14.1559 41.3935 11.2958 34.6479 11.2958C27.9023 11.2958 21.8247 14.1559 17.5617 18.7297C17.0689 18.2799 16.594 17.8109 16.138 17.3239C20.7641 12.3832 27.3454 9.29578 34.6479 9.29578C41.9503 9.29578 48.5316 12.3832 53.1577 17.3239C52.7017 17.8109 52.2268 18.2799 51.734 18.7297Z" fill="#DCF8E3"/>
<path fill-rule="evenodd" clip-rule="evenodd" d="M53.3774 17.0862C48.8037 12.8232 45.9435 6.7456 45.9435 1.90735e-06C45.9435 -6.74559 48.8037 -12.8232 53.3774 -17.0861C52.9277 -17.5789 52.4587 -18.0539 51.9717 -18.5099C47.031 -13.8838 43.9435 -7.30244 43.9435 1.90735e-06C43.9435 7.30245 47.031 13.8838 51.9717 18.5099C52.4587 18.0539 52.9277 17.5789 53.3774 17.0862Z" fill="#DCF8E3"/>
<circle cx="6.10352e-05" r="24.3521" stroke="#E7C2FA" stroke-width="2"/>
</g>
<g style="mix-blend-mode:hard-light">
<circle cx="200" cy="34.6479" r="24.3521" transform="rotate(-180 200 34.6479)" stroke="#ACFBF9" stroke-width="2"/>
<path fill-rule="evenodd" clip-rule="evenodd" d="M181.27 51.734C185.844 47.4711 188.704 41.3935 188.704 34.6479C188.704 27.9023 185.844 21.8247 181.27 17.5617C181.72 17.069 182.189 16.594 182.676 16.138C187.617 20.7641 190.704 27.3454 190.704 34.6479C190.704 41.9503 187.617 48.5317 182.676 53.1577C182.189 52.7018 181.72 52.2268 181.27 51.734Z" fill="#ACFBF9"/>
<path fill-rule="evenodd" clip-rule="evenodd" d="M182.914 53.3776C187.177 48.8038 193.254 45.9437 200 45.9437C206.746 45.9437 212.823 48.8038 217.086 53.3776C217.579 52.9278 218.054 52.4588 218.51 51.9718C213.884 47.0311 207.302 43.9437 200 43.9437C192.697 43.9437 186.116 47.0311 181.49 51.9718C181.946 52.4588 182.421 52.9278 182.914 53.3776Z" fill="#ACFBF9"/>
<circle cx="165.352" r="24.3521" transform="rotate(-90 165.352 0)" stroke="#E1C9D7" stroke-width="2"/>
<path fill-rule="evenodd" clip-rule="evenodd" d="M182.438 18.7297C178.175 14.156 172.098 11.2958 165.352 11.2958C158.607 11.2958 152.529 14.156 148.266 18.7297C147.773 18.2799 147.298 17.811 146.842 17.324C151.468 12.3833 158.05 9.29582 165.352 9.29582C172.655 9.29582 179.236 12.3833 183.862 17.324C183.406 17.811 182.931 18.2799 182.438 18.7297Z" fill="#E1C9D7"/>
<path fill-rule="evenodd" clip-rule="evenodd" d="M146.623 -17.0862C151.196 -12.8232 154.056 -6.7456 154.056 -1.90735e-06C154.056 6.74559 151.196 12.8232 146.623 17.0861C147.072 17.5789 147.541 18.0539 148.028 18.5099C152.969 13.8838 156.056 7.30244 156.056 -1.90735e-06C156.056 -7.30245 152.969 -13.8838 148.028 -18.5099C147.541 -18.0539 147.072 -17.5789 146.623 -17.0862Z" fill="#E1C9D7"/>
<circle cx="200" r="24.3521" stroke="#E7C2FA" stroke-width="2"/>
</g>
<g style="mix-blend-mode:hard-light">
<circle cx="200" cy="165.352" r="24.3521" stroke="#E7C2FA" stroke-width="2"/>
<path fill-rule="evenodd" clip-rule="evenodd" d="M181.271 182.438C185.844 178.175 188.704 172.098 188.704 165.352C188.704 158.607 185.844 152.529 181.271 148.266C181.72 147.773 182.189 147.298 182.676 146.842C187.617 151.468 190.704 158.05 190.704 165.352C190.704 172.655 187.617 179.236 182.676 183.862C182.189 183.406 181.72 182.931 181.271 182.438Z" fill="#E7C2FA"/>
<path fill-rule="evenodd" clip-rule="evenodd" d="M217.086 146.622C212.823 151.196 206.746 154.056 200 154.056C193.254 154.056 187.177 151.196 182.914 146.622C182.421 147.072 181.946 147.541 181.49 148.028C186.116 152.969 192.698 156.056 200 156.056C207.303 156.056 213.884 152.969 218.51 148.028C218.054 147.541 217.579 147.072 217.086 146.622Z" fill="#E7C2FA"/>
<circle cx="165.352" cy="200" r="24.3521" transform="rotate(-90 165.352 200)" stroke="#E1C9D7" stroke-width="2"/>
<path fill-rule="evenodd" clip-rule="evenodd" d="M148.266 181.27C152.529 185.844 158.607 188.704 165.352 188.704C172.098 188.704 178.175 185.844 182.438 181.27C182.931 181.72 183.406 182.189 183.862 182.676C179.236 187.617 172.655 190.704 165.352 190.704C158.05 190.704 151.468 187.617 146.842 182.676C147.298 182.189 147.773 181.72 148.266 181.27Z" fill="#E1C9D7"/>
<path fill-rule="evenodd" clip-rule="evenodd" d="M146.623 182.914C151.196 187.177 154.056 193.254 154.056 200C154.056 206.746 151.196 212.823 146.623 217.086C147.072 217.579 147.541 218.054 148.028 218.51C152.969 213.884 156.056 207.302 156.056 200C156.056 192.698 152.969 186.116 148.028 181.49C147.541 181.946 147.072 182.421 146.623 182.914Z" fill="#E1C9D7"/>
<circle cx="200" cy="200" r="24.3521" stroke="#E7C2FA" stroke-width="2"/>
</g>
<g style="mix-blend-mode:hard-light">
<circle cx="96.752" cy="134.495" r="24.3521" transform="rotate(-174.621 96.752 134.495)" stroke="#E7C2FA" stroke-width="2"/>
<path fill-rule="evenodd" clip-rule="evenodd" d="M76.5028 149.75C81.4561 145.935 84.8734 140.152 85.5058 133.436C86.1382 126.72 83.8604 120.401 79.7064 115.728C80.2004 115.28 80.7119 114.851 81.2395 114.443C85.7247 119.512 88.1816 126.354 87.497 133.624C86.8124 140.894 83.1216 147.157 77.7689 151.3C77.3268 150.8 76.9044 150.283 76.5028 149.75Z" fill="#E7C2FA"/>
<path fill-rule="evenodd" clip-rule="evenodd" d="M117.001 119.24C112.048 123.056 108.631 128.838 107.998 135.554C107.366 142.27 109.644 148.589 113.798 153.262C113.304 153.711 112.792 154.139 112.265 154.548C107.779 149.479 105.322 142.637 106.007 135.367C106.692 128.096 110.382 121.834 115.735 117.691C116.177 118.191 116.6 118.708 117.001 119.24Z" fill="#E7C2FA"/>
<path fill-rule="evenodd" clip-rule="evenodd" d="M77.9851 151.541C82.6581 147.387 88.977 145.109 95.6929 145.741C102.409 146.374 108.191 149.791 112.007 154.744C112.54 154.343 113.056 153.92 113.556 153.478C109.414 148.126 103.151 144.435 95.8804 143.75C88.6101 143.066 81.7683 145.522 76.6994 150.008C77.1077 150.535 77.5366 151.047 77.9851 151.541Z" fill="#E7C2FA"/>
<circle cx="103.248" cy="65.5047" r="24.3521" transform="rotate(5.37932 103.248 65.5047)" stroke="#ACFBF9" stroke-width="2"/>
<path fill-rule="evenodd" clip-rule="evenodd" d="M123.497 50.2497C118.544 54.0651 115.127 59.8478 114.494 66.5637C113.862 73.2796 116.14 79.5985 120.294 84.2715C119.8 84.7199 119.288 85.1489 118.761 85.5572C114.275 80.4883 111.818 73.6465 112.503 66.3762C113.188 59.1059 116.878 52.843 122.231 48.7005C122.673 49.2001 123.096 49.7169 123.497 50.2497Z" fill="#ACFBF9"/>
<path fill-rule="evenodd" clip-rule="evenodd" d="M82.9988 80.7597C87.9521 76.9443 91.3694 71.1616 92.0018 64.4457C92.6342 57.7298 90.3564 51.4109 86.2025 46.7379C86.6965 46.2895 87.2079 45.8606 87.7355 45.4523C92.2208 50.5211 94.6776 57.3629 93.993 64.6332C93.3084 71.9035 89.6176 78.1664 84.2649 82.3089C83.8228 81.8093 83.4005 81.2925 82.9988 80.7597Z" fill="#ACFBF9"/>
<path fill-rule="evenodd" clip-rule="evenodd" d="M122.015 48.4593C117.342 52.6133 111.023 54.8911 104.307 54.2587C97.5912 53.6263 91.8085 50.209 87.9931 45.2557C87.4603 45.6573 86.9435 46.0797 86.4439 46.5218C90.5864 51.8745 96.8493 55.5653 104.12 56.2499C111.39 56.9345 118.232 54.4777 123.301 49.9924C122.892 49.4648 122.463 48.9534 122.015 48.4593Z" fill="#ACFBF9"/>
<circle cx="134.495" cy="103.248" r="24.3521" transform="rotate(95.3793 134.495 103.248)" stroke="#E1C9D7" stroke-width="2"/>
<path fill-rule="evenodd" clip-rule="evenodd" d="M149.75 123.497C145.934 118.544 140.152 115.127 133.436 114.494C126.72 113.862 120.401 116.14 115.728 120.294C115.28 119.8 114.851 119.288 114.442 118.761C119.511 114.275 126.353 111.818 133.623 112.503C140.894 113.188 147.157 116.878 151.299 122.231C150.8 122.673 150.283 123.096 149.75 123.497Z" fill="#E1C9D7"/>
<path fill-rule="evenodd" clip-rule="evenodd" d="M119.24 82.9991C123.055 87.9524 128.838 91.3697 135.554 92.0021C142.27 92.6345 148.589 90.3567 153.262 86.2027C153.71 86.6967 154.139 87.2082 154.547 87.7357C149.479 92.221 142.637 94.6779 135.366 93.9933C128.096 93.3087 121.833 89.6178 117.691 84.2652C118.19 83.8231 118.707 83.4007 119.24 82.9991Z" fill="#E1C9D7"/>
<path fill-rule="evenodd" clip-rule="evenodd" d="M151.54 122.015C147.386 117.342 145.109 111.023 145.741 104.307C146.373 97.5913 149.791 91.8086 154.744 87.9932C154.342 87.4604 153.92 86.9436 153.478 86.444C148.125 90.5865 144.434 96.8494 143.75 104.12C143.065 111.39 145.522 118.232 150.007 123.301C150.535 122.892 151.046 122.463 151.54 122.015Z" fill="#E1C9D7"/>
<circle cx="65.5049" cy="96.7518" r="24.3521" transform="rotate(-84.6207 65.5049 96.7518)" stroke="#DCF8E3" stroke-width="2"/>
<path fill-rule="evenodd" clip-rule="evenodd" d="M50.2501 76.5028C54.0655 81.4561 59.8482 84.8734 66.5641 85.5058C73.28 86.1382 79.5989 83.8604 84.2719 79.7064C84.7203 80.2004 85.1493 80.7119 85.5576 81.2395C80.4887 85.7247 73.6469 88.1816 66.3766 87.497C59.1063 86.8124 52.8434 83.1216 48.7009 77.7689C49.2005 77.3268 49.7173 76.9044 50.2501 76.5028Z" fill="#DCF8E3"/>
<path fill-rule="evenodd" clip-rule="evenodd" d="M80.76 117.001C76.9446 112.048 71.162 108.63 64.4461 107.998C57.7302 107.366 51.4112 109.643 46.7382 113.797C46.2898 113.303 45.8609 112.792 45.4526 112.264C50.5215 107.779 57.3633 105.322 64.6336 106.007C71.9038 106.691 78.1667 110.382 82.3093 115.735C81.8097 116.177 81.2928 116.599 80.76 117.001Z" fill="#DCF8E3"/>
<path fill-rule="evenodd" clip-rule="evenodd" d="M48.4596 77.985C52.6136 82.658 54.8914 88.977 54.259 95.6928C53.6266 102.409 50.2093 108.191 45.256 112.007C45.6576 112.54 46.08 113.056 46.5221 113.556C51.8748 109.414 55.5656 103.151 56.2502 95.8803C56.9348 88.6101 54.478 81.7683 49.9927 76.6994C49.4651 77.1077 48.9537 77.5366 48.4596 77.985Z" fill="#DCF8E3"/>
<circle cx="100" cy="100" r="24.3521" transform="rotate(-174.621 100 100)" stroke="#E7C2FA" stroke-width="2"/>
</g>
</g>
<defs>
<clipPath id="clip0_93_0">
<rect width="200" height="200" fill="white"/>
</clipPath>
</defs>
</svg>
